{"title":"Restrepo 2010.720p.BRRip.x264.Feel-Free","uid":6030938,"size":1902594546,"categoryP":"video","categoryS":"hd___movies","magnet":"?xt=urn:btih:5dff8ff3fb4add8f3b6788e42e900a6ffb710bfa&amp;dn=Restrepo+2010.720p.BRRip.x264.Feel-Free&amp;tr=udp%3A%2F%2Ftracker.openbittorrent.com%3A80&amp;tr=udp%3A%2F%2Fopen.demonii.com%3A1337&amp;tr=udp%3A%2F%2Ftracker.coppersurfer.tk%3A6969&amp;tr=udp%3A%2F%2Fexodus.desync.com%3A6969","seeders":2,"leechers":0,"uploader":"neon","files":-1,"time":1292078331,"description":"Genre:Documentary | War\nLanguage:English\n &lt;a href=&quot; http://www.imdb.com/title/tt1559549/&quot; rel=&quot;nofollow&quot; target=&quot;_NEW&quot;&gt; http://www.imdb.com/title/tt1559549/&lt;/a&gt;\nSource:720p.BluRay.x264-BRMP\n\n\nFormat : Matroska\nFile size : 1.77 GiB\nDuration : 1h 33mn\nOverall bit rate : 2 699 Kbps\n\n\nVideo\nCodec ID : V_MPEG4/ISO/AVC\nDuration : 1h 33mn\nBit rate : 2 300 Kbps\nWidth : 1 280 pixels\nHeight : 720 pixels\nDisplay aspect ratio : 16:9\nFrame rate mode : Variable\nFrame rate : 29.970 fps\nColor space : YUV\nChroma subsampling : 4:2:0\nBit depth : 8 bits\nScan type : Progressive\nBits/(Pixel*Frame) : 0.083\nStream size : 1.48 GiB (84%)\nWriting library : x264\n\nAudio\nID : 2\nFormat : AC-3\nFormat/Info : Audio Coding 3\nMode extension : CM (complete main)\nCodec ID : A_AC3\nDuration : 1h 33mn\nBit rate mode : Constant\nBit rate : 384 Kbps\nChannel(s) : 6 channels\nChannel positions : Front: L C R, Side: L R, LFE\nSampling rate : 48.0 KHz\nBit depth : 16 bits\nVideo delay : -1mn 5s\nStream size : 257 MiB (14%)\nLanguage : English\n\n\nPlot:\nA year with one platoon in the deadliest valley in Afghanistan\n &lt;a href=&quot;\nhttp://rapidhdd.com/images/567236vlcsnap-2010-12-11-14h53m48s194.png&quot; rel=&quot;nofollow&quot; target=&quot;_NEW&quot;&gt;\nhttp://rapidhdd.com/images/567236vlcsnap-2010-12-11-14h53m48s194.png&lt;/a&gt; &lt;a href=&quot;\nhttp://www.rapidhdd.com/images/858128vlcsnap-2010-12-11-14h54m09s156.png&quot; rel=&quot;nofollow&quot; target=&quot;_NEW&quot;&gt;\nhttp://www.rapidhdd.com/images/858128vlcsnap-2010-12-11-14h54m09s156.png&lt;/a&gt; &lt;a href=&quot;\nhttp://www.rapidhdd.com/images/668106vlcsnap-2010-12-11-14h54m44s244.png&quot; rel=&quot;nofollow&quot; target=&quot;_NEW&quot;&gt;\nhttp://www.rapidhdd.com/images/668106vlcsnap-2010-12-11-14h54m44s244.png&lt;/a&gt; &lt;a href=&quot;\nhttp://www.rapidhdd.com/images/722882vlcsnap-2010-12-11-14h54m23s43.png&quot; rel=&quot;nofollow&quot; target=&quot;_NEW&quot;&gt;\nhttp://www.rapidhdd.com/images/722882vlcsnap-2010-12-11-14h54m23s43.png&lt;/a&gt; &lt;a href=&quot;\nhttp://www.rapidhdd.com/images/805893vlcsnap-2010-12-11-14h54m31s123.png&quot; rel=&quot;nofollow&quot; target=&quot;_NEW&quot;&gt;\nhttp://www.rapidhdd.com/images/805893vlcsnap-2010-12-11-14h54m31s123.png&lt;/a&gt;","torrent":{"xt":"urn:btih:5dff8ff3fb4add8f3b6788e42e900a6ffb710bfa","amp;dn":"Restrepo+2010.720p.BRRip.x264.Feel-Free","amp;tr":["udp%3A%2F%2Ftracker.openbittorrent.com%3A80","udp%3A%2F%2Fopen.demonii.com%3A1337","udp%3A%2F%2Ftracker.coppersurfer.tk%3A6969","udp%3A%2F%2Fexodus.desync.com%3A6969"],"infoHash":"5dff8ff3fb4add8f3b6788e42e900a6ffb710bfa","infoHashBuffer":{"type":"Buffer","data":[93,255,143,243,251,74,221,143,59,103,136,228,46,144,10,111,251,113,11,250]},"announce":[],"urlList":[]}}